<svg width="284" height="150" viewBox="0 0 284 150" fill="none" xmlns="http://www.w3.org/2000/svg">
<path d="M0 86.445L12.1031 84.7648L18.6883 108.793L25.7381 82.8725L39.8123 80.9189L24.2225 128.604L13.0081 128.596L0 86.445Z" fill="#FAFAFA"/>
<path d="M42.6639 80.5238L56.7531 78.5678L56.5712 128.78L42.4912 128.764L42.6639 80.5226V80.5238Z" fill="#FAFAFA"/>
<path d="M59.8923 78.1298L102.438 72.2248L102.38 87.7532L75.1264 90.4901L75.1067 95.8447L100.378 93.6651L100.327 107.265L75.0603 108.591L75.0395 114.322L102.683 113.292L102.625 128.832L59.7092 128.784L59.8923 78.1298Z" fill="#FAFAFA"/>
<path d="M74.4751 60.6547L86.1425 59.007L96.0985 70.4287L85.6651 71.9467L83.3685 69.0603C81.7891 67.0753 78.7161 67.2654 77.3928 69.4299L74.9258 73.4635L65.4705 74.8853L74.4751 60.6535V60.6547Z" fill="#FAFAFA"/>
<path d="M73.6836 133.131L86.5051 133.285L86.4669 147.375L73.6372 146.827L73.6836 133.131Z" fill="#FAFAFA"/>
<path d="M124.257 85.898L106.78 87.6396L106.84 71.6165L167.168 63.2433L167.096 81.6292L146.017 83.7289L145.844 128.878L124.096 128.854L124.26 85.8957L124.257 85.898Z" fill="#FAFAFA"/>
<path d="M108.832 145.052L113.129 141.054C114.209 140.021 114.626 139.364 114.628 138.47C114.63 137.556 114.117 136.987 113.338 136.977C112.563 136.966 111.954 137.514 111.049 138.798L108.928 136.526C110.151 134.57 111.36 133.468 113.598 133.48C116.129 133.492 117.908 135.407 117.902 138.173V138.214C117.896 140.563 116.914 141.754 115.166 143.272L113.167 144.956L118.005 145.122L117.998 148.443L108.823 148.051L108.833 145.053L108.832 145.052Z" fill="#FAFAFA"/>
<path d="M123.835 141.191V141.149C123.842 136.991 125.997 133.519 129.438 133.536C132.94 133.554 135.153 137.103 135.154 141.38V141.423C135.154 145.706 132.919 149.203 129.393 149.049C125.927 148.898 123.83 145.353 123.837 141.19L123.835 141.191ZM131.68 141.382V141.339C131.68 138.962 130.749 137.214 129.4 137.195C128.06 137.176 127.176 138.815 127.174 141.188V141.231C127.171 143.626 128.088 145.334 129.429 145.38C130.796 145.428 131.679 143.762 131.679 141.383L131.68 141.382Z" fill="#FAFAFA"/>
<path d="M140.35 145.893L145.118 141.68C146.318 140.59 146.78 139.897 146.779 138.953C146.778 137.986 146.202 137.386 145.333 137.373C144.468 137.362 143.79 137.94 142.788 139.294L140.414 136.893C141.766 134.83 143.109 133.666 145.603 133.679C148.427 133.693 150.423 135.717 150.429 138.641V138.685C150.435 141.167 149.344 142.425 147.4 144.026L145.179 145.8L150.578 145.986L150.586 149.497L140.351 149.059L140.349 145.895L140.35 145.893Z" fill="#FAFAFA"/>
<path d="M161.949 146.766L155.411 146.533L154.796 143.469L161.743 133.933L165.606 133.954L165.649 143.594L167.429 143.644L167.444 146.962L165.663 146.898L165.677 149.999L161.961 149.839L161.949 146.765V146.766ZM161.936 143.514L161.919 138.98L158.692 143.424L161.936 143.514Z" fill="#FAFAFA"/>
<path d="M0.163363 46.4311V46.3106C0.191173 39.9896 2.24448 34.4647 6.26881 29.7439C10.2943 25.022 15.3557 22.1993 21.4519 21.336C27.7149 20.4484 33.0915 21.7926 37.5261 25.4392L30.2885 35.9745C27.6605 33.8783 24.8088 33.0776 21.7868 33.5052C19.314 33.8552 17.2236 35.1136 15.5678 37.2132C13.9675 39.3048 13.1332 41.8308 13.1216 44.6605V44.781C13.1089 47.7312 13.978 50.0765 15.6721 51.7034C17.3673 53.3302 19.5608 53.9235 22.2537 53.5435C24.1216 53.2793 25.6072 52.7694 26.6535 51.9594L26.6709 47.7428L20.0776 48.6744L20.1147 39.6408L38.7451 37.007L38.6674 56.5284C33.9223 61.4125 28.2526 64.3198 21.6581 65.2491C15.5597 66.1089 10.4588 64.8401 6.41249 61.3778C2.19928 57.8169 0.135553 52.8725 0.163363 46.4311Z" fill="#FAFAFA"/>
<path d="M88.6628 11.8239L102.103 9.91887L110.318 23.584L118.637 7.57588L132.093 5.66858L131.946 49.708L119.093 51.5191L119.165 30.5805L110.235 46.8575L110.015 46.8887L101.195 33.1205L101.121 54.0521L88.5029 55.8296L88.6628 11.825V11.8239Z" fill="#FAFAFA"/>
<path d="M134.41 5.34065L167.364 0.670898L167.327 12.7509L147.063 15.6176L147.049 20.0834L165.933 17.4137L165.899 28.0487L147.014 30.7149L146.999 35.4971L167.542 32.5979L167.505 44.6836L134.265 49.3673L134.411 5.34065H134.41Z" fill="#FAFAFA"/>
<path d="M57.3465 16.2619L70.1113 14.4531L86.1901 56.1553L72.2028 58.1263L70.1866 52.7451L56.7034 54.6466L54.7011 60.5921L40.9502 62.5295L57.3465 16.263V16.2619ZM62.0406 37.825L57.8077 38.4229L61.2213 40.6651L59.8957 45.2607L63.3314 42.051L66.7463 44.2932L65.4543 40.0672L68.8899 36.8575L64.6559 37.4554L63.3639 33.2306L62.0383 37.8262L62.0406 37.825Z" fill="#FAFAFA"/>
<path d="M196.777 56.5655V56.5724C196.797 56.7671 196.803 56.9838 196.804 57.2225C196.76 63.9826 196.753 69.1483 196.7 75.9305C196.691 77.2677 197.242 77.8378 198.22 78.7045C201.01 81.1842 204.73 84.2144 207.815 86.6165C208.621 87.2468 209.211 87.1958 210.156 86.7706C213.392 85.3268 220.569 80.9467 225.197 78.8424L203.132 77.5829C201.788 77.5064 201.113 76.7524 201.108 75.321C201.092 69.3291 201.105 63.3465 201.034 57.3685C201.017 56.0278 201.394 55.6385 202.688 55.7428C222.37 57.3488 242.685 58.9919 260.723 60.4484L260.908 80.861C260.898 80.8668 260.89 80.8725 260.878 80.8772C256.815 83.46 247.857 89.27 246.153 90.2885C234.649 97.1634 222.815 104.214 210.673 111.527C209.576 112.188 208.757 112.276 207.634 111.513C197.842 104.876 186.932 97.5296 176.893 90.4658C175.825 89.7161 175.402 89.0301 175.409 87.7428L175.517 4.55505C175.517 1.67788 177.802 -0.339502 180.605 0.0452022L278.73 13.5238L278.751 13.5261C281.001 13.8413 282.837 16.1727 282.866 18.7405L283.038 33.6779C252.81 30.2341 229.822 27.5944 201.587 24.3627C198.899 24.0556 196.716 26.0973 196.723 28.927C196.751 39.9189 196.769 51.7532 196.776 56.562L196.777 56.5655Z" fill="#FAFAFA"/>
<path d="M212.611 115.034L264.569 83.4902C264.569 83.4902 264.377 56.5168 264.357 56.3917C263.852 56.3488 263.345 56.3048 262.838 56.2619C241.855 54.4658 225.885 53.0997 203.051 51.1437C201.711 51.0286 201.038 50.2603 201.034 48.8389C201.016 42.8807 201.032 36.9328 200.959 30.9849C200.943 29.6524 201.319 29.2758 202.611 29.4183L282.979 38.2804L283.307 92.8459C283.328 93.9537 282.968 94.4786 282.185 95.0116C260.197 110.001 257.08 112.88 234.207 128.411C233.539 128.866 232.958 129.194 232.094 128.635L212.607 115.034H212.611Z" fill="#FAFAFA"/>
</svg>
